<?xml version="1.0" encoding="UTF-8" standalone="no"?>
<!DOCTYPE svg PUBLIC "-//W3C//DTD SVG 1.1//EN" "http://www.w3.org/Graphics/SVG/1.1/DTD/svg11.dtd">
<!-- Generiert durch Microsoft Visio, SVG Export repo-remote.svg Zeichenblatt-1 -->
<svg xmlns="http://www.w3.org/2000/svg" xmlns:xlink="http://www.w3.org/1999/xlink" xmlns:ev="http://www.w3.org/2001/xml-events"
		xmlns:v="http://schemas.microsoft.com/visio/2003/SVGExtensions/" width="11.4982in" height="9.00427in"
		viewBox="0 0 827.869 648.307" xml:space="preserve" color-interpolation-filters="sRGB" class="st20">
	<v:documentProperties v:langID="1031" v:metric="true" v:viewMarkup="false"/>

	<style type="text/css">
	<![CDATA[
		.st1 {fill:#f2f2f2;stroke:#90aadb;stroke-dasharray:6,6;stroke-width:2}
		.st2 {fill:#000000;stroke:#c7c8c8;stroke-width:0.25}
		.st3 {fill:#ededed;stroke:none;stroke-width:0.25}
		.st4 {fill:#000000;font-family:Montserrat;font-size:1.5em}
		.st5 {fill:none;stroke:none;stroke-width:2}
		.st6 {fill:#c9c9c9;stroke:none;stroke-width:0.25}
		.st7 {fill:#ededed;stroke:#a8d08d;stroke-dasharray:6,6;stroke-width:2}
		.st8 {stroke:#000000;stroke-width:2.75}
		.st9 {marker-end:url(#mrkr13-49);stroke:#33cccc;stroke-linecap:round;stroke-linejoin:round;stroke-width:2}
		.st10 {fill:#33cccc;fill-opacity:1;stroke:#33cccc;stroke-opacity:1;stroke-width:0.38167938931298}
		.st11 {fill:#90aadb;stroke:none;stroke-width:2}
		.st12 {fill:#a8d08d;stroke:none;stroke-width:2}
		.st13 {fill:#33cccc;stroke:none;stroke-width:2}
		.st14 {fill:#f2f2f2;stroke:#ffc000;stroke-dasharray:6,6;stroke-width:2}
		.st15 {fill:#ffc000;stroke:none;stroke-width:2}
		.st16 {fill:#000000;stroke:#ededed;stroke-width:4.5}
		.st17 {marker-end:url(#mrkr13-125);stroke:#9966ff;stroke-linecap:round;stroke-linejoin:round;stroke-width:2}
		.st18 {fill:#9966ff;fill-opacity:1;stroke:#9966ff;stroke-opacity:1;stroke-width:0.38167938931298}
		.st19 {fill:#9966ff;stroke:none;stroke-width:2}
		.st20 {fill:none;fill-rule:evenodd;font-size:12px;overflow:visible;stroke-linecap:square;stroke-miterlimit:3}
	]]>
	</style>

	<defs id="Markers">
		<g id="lend13">
			<path d="M 3 1 L 0 0 L 3 -1 L 3 1 " style="stroke:none"/>
		</g>
		<marker id="mrkr13-49" class="st10" v:arrowType="13" v:arrowSize="3" v:setback="7.86" refX="-7.86" orient="auto"
				markerUnits="strokeWidth" overflow="visible">
			<use xlink:href="#lend13" transform="scale(-2.62,-2.62) "/>
		</marker>
		<marker id="mrkr13-125" class="st18" v:arrowType="13" v:arrowSize="3" v:setback="7.86" refX="-7.86" orient="auto"
				markerUnits="strokeWidth" overflow="visible">
			<use xlink:href="#lend13" transform="scale(-2.62,-2.62) "/>
		</marker>
	</defs>
	<g v:mID="0" v:index="1" v:groupContext="foregroundPage">
		<title>Zeichenblatt-1</title>
		<v:pageProperties v:drawingScale="0.0393701" v:pageScale="0.0393701" v:drawingUnits="24" v:shadowOffsetX="8.50394"
				v:shadowOffsetY="-8.50394"/>
		<v:layer v:name="Verbinder" v:index="0"/>
		<g id="shape25-1" v:mID="25" v:groupContext="shape" transform="translate(2,-272.882)">
			<title>Rechteck.25</title>
			<v:userDefs>
				<v:ud v:nameU="visVersion" v:val="VT0(15):26"/>
			</v:userDefs>
			<path d="M0 648.31 L732.52 648.31 L732.52 492.4 L0 492.4 L0 648.31 Z" class="st1"/>
		</g>
		<g id="group37-3" transform="translate(244.362,-362.599)" v:mID="37" v:groupContext="group">
			<title>Tabelle.37</title>
		</g>
		<g id="shape23-4" v:mID="23" v:groupContext="shape" transform="translate(130.976,-370.677)">
			<title>Rechteck.23</title>
			<v:userDefs>
				<v:ud v:nameU="visVersion" v:val="VT0(15):26"/>
			</v:userDefs>
			<rect x="0" y="645.473" width="538" height="2.83465" class="st2"/>
		</g>
		<g id="shape42-6" v:mID="42" v:groupContext="shape" transform="translate(24.6772,-362.599)">
			<title>Rechteck</title>
			<desc>Master</desc>
			<v:userDefs>
				<v:ud v:nameU="visVersion" v:val="VT0(15):26"/>
			</v:userDefs>
			<v:textBlock v:margins="rect(4,4,4,4)" v:tabSpace="42.5197"/>
			<v:textRect cx="49.6063" cy="638.811" width="99.22" height="18.9921"/>
			<rect x="0" y="629.315" width="99.2126" height="18.9921" class="st3"/>
			<text x="19.28" y="644.21" class="st4" v:langID="1031"><v:paragraph v:horizAlign="1"/><v:tabList/>Master</text>		</g>
		<g id="shape52-9" v:mID="52" v:groupContext="shape" transform="translate(26.0945,-348.709)">
			<title>Tabelle.52</title>
			<rect x="0" y="601.536" width="676.898" height="46.7717" class="st5"/>
		</g>
		<g id="shape36-11" v:mID="36" v:groupContext="shape" transform="translate(2,-400.441)">
			<title>Tabelle.36</title>
			<desc>YourUsername/SpongePowered</desc>
			<v:textBlock v:margins="rect(2,2,2,2)" v:tabSpace="42.5197"/>
			<v:textRect cx="366.261" cy="634.134" width="732.53" height="28.3464"/>
			<rect x="0" y="619.961" width="732.522" height="28.3464" class="st6"/>
			<text x="222.29" y="639.53" class="st4" v:langID="1031"><v:paragraph v:horizAlign="1"/><v:tabList/>YourUsername/SpongePowered</text>		</g>
		<g id="shape60-14" v:mID="60" v:groupContext="shape" transform="translate(251.449,-309.024)">
			<title>Rechteck.60</title>
			<v:userDefs>
				<v:ud v:nameU="visVersion" v:val="VT0(15):26"/>
			</v:userDefs>
			<rect x="0" y="645.473" width="414.693" height="2.83465" class="st2"/>
		</g>
		<g id="shape65-16" v:mID="65" v:groupContext="shape" transform="translate(24.6772,-300.945)">
			<title>Rechteck.65</title>
			<desc>Feature 1</desc>
			<v:userDefs>
				<v:ud v:nameU="visVersion" v:val="VT0(15):26"/>
			</v:userDefs>
			<v:textBlock v:margins="rect(4,4,4,4)" v:tabSpace="42.5197"/>
			<v:textRect cx="49.6063" cy="638.811" width="99.22" height="18.9921"/>
			<rect x="0" y="629.315" width="99.2126" height="18.9921" class="st3"/>
			<text x="9.68" y="644.21" class="st4" v:langID="1031"><v:paragraph v:horizAlign="1"/><v:tabList/>Feature 1</text>		</g>
		<g id="shape66-19" v:mID="66" v:groupContext="shape" transform="translate(26.0945,-287.055)">
			<title>Tabelle.66</title>
			<rect x="0" y="601.536" width="676.898" height="46.7717" class="st5"/>
		</g>
		<g id="shape74-21" v:mID="74" v:groupContext="shape" transform="translate(2,-51.0317)">
			<title>Rechteck.74</title>
			<v:userDefs>
				<v:ud v:nameU="visVersion" v:val="VT0(15):26"/>
			</v:userDefs>
			<path d="M0 648.31 L732.52 648.31 L732.52 492.4 L0 492.4 L0 648.31 Z" class="st7"/>
		</g>
		<g id="group75-23" transform="translate(244.362,-140.748)" v:mID="75" v:groupContext="group">
			<title>Tabelle.75</title>
		</g>
		<g id="shape76-24" v:mID="76" v:groupContext="shape" transform="translate(130.976,-148.827)">
			<title>Rechteck.76</title>
			<v:userDefs>
				<v:ud v:nameU="visVersion" v:val="VT0(15):26"/>
			</v:userDefs>
			<rect x="0" y="645.473" width="538" height="2.83465" class="st2"/>
		</g>
		<g id="shape80-26" v:mID="80" v:groupContext="shape" transform="translate(24.6772,-140.748)">
			<title>Rechteck.80</title>
			<desc>Master</desc>
			<v:userDefs>
				<v:ud v:nameU="visVersion" v:val="VT0(15):26"/>
			</v:userDefs>
			<v:textBlock v:margins="rect(4,4,4,4)" v:tabSpace="42.5197"/>
			<v:textRect cx="49.6063" cy="638.811" width="99.22" height="18.9921"/>
			<rect x="0" y="629.315" width="99.2126" height="18.9921" class="st3"/>
			<text x="19.28" y="644.21" class="st4" v:langID="1031"><v:paragraph v:horizAlign="1"/><v:tabList/>Master</text>		</g>
		<g id="shape81-29" v:mID="81" v:groupContext="shape" transform="translate(26.0945,-126.858)">
			<title>Tabelle.81</title>
			<rect x="0" y="601.536" width="676.898" height="46.7717" class="st5"/>
		</g>
		<g id="shape82-31" v:mID="82" v:groupContext="shape" transform="translate(2,-178.591)">
			<title>Tabelle.82</title>
			<desc>YourLocalClone</desc>
			<v:textBlock v:margins="rect(2,2,2,2)" v:tabSpace="42.5197"/>
			<v:textRect cx="366.261" cy="634.134" width="732.53" height="28.3464"/>
			<rect x="0" y="619.961" width="732.522" height="28.3464" class="st6"/>
			<text x="296.23" y="639.53" class="st4" v:langID="1031"><v:paragraph v:horizAlign="1"/><v:tabList/>YourLocalClone</text>		</g>
		<g id="shape83-34" v:mID="83" v:groupContext="shape" transform="translate(251.449,-87.1734)">
			<title>Rechteck.83</title>
			<v:userDefs>
				<v:ud v:nameU="visVersion" v:val="VT0(15):26"/>
			</v:userDefs>
			<rect x="0" y="645.473" width="414.693" height="2.83465" class="st2"/>
		</g>
		<g id="shape87-36" v:mID="87" v:groupContext="shape" transform="translate(24.6772,-79.0947)">
			<title>Rechteck.87</title>
			<desc>Feature 1</desc>
			<v:userDefs>
				<v:ud v:nameU="visVersion" v:val="VT0(15):26"/>
			</v:userDefs>
			<v:textBlock v:margins="rect(4,4,4,4)" v:tabSpace="42.5197"/>
			<v:textRect cx="49.6063" cy="638.811" width="99.22" height="18.9921"/>
			<rect x="0" y="629.315" width="99.2126" height="18.9921" class="st3"/>
			<text x="9.68" y="644.21" class="st4" v:langID="1031"><v:paragraph v:horizAlign="1"/><v:tabList/>Feature 1</text>		</g>
		<g id="shape88-39" v:mID="88" v:groupContext="shape" transform="translate(26.0945,-65.2049)">
			<title>Tabelle.88</title>
			<rect x="0" y="601.536" width="676.898" height="46.7717" class="st5"/>
		</g>
		<g id="shape89-41" v:mID="89" v:groupContext="shape" v:layerMember="0" transform="translate(123.89,-150.244)">
			<title>Dynamischer Verbinder.89</title>
			<path d="M0 648.31 L53.12 648.31 A28.3465 28.3465 0 0 1 81.46 676.65 L81.46 681.61 A28.3465 28.3465 -180 0 0 109.81 709.96
						 L542.25 709.96" class="st8"/>
		</g>
		<g id="shape90-44" v:mID="90" v:groupContext="shape" v:layerMember="0" transform="translate(361.175,-272.882)">
			<title>Dynamischer Verbinder.90</title>
			<path d="M7.09 648.31 L7.09 698.53" class="st9"/>
		</g>
		<g id="shape91-50" v:mID="91" v:groupContext="shape" transform="translate(2,-225.424)">
			<title>Rechteck.91</title>
			<desc>Your Fork</desc>
			<v:userDefs>
				<v:ud v:nameU="visVersion" v:val="VT0(15):26"/>
			</v:userDefs>
			<v:textBlock v:margins="rect(4,4,4,4)" v:tabSpace="42.5197"/>
			<v:textRect cx="56.6929" cy="634.134" width="113.39" height="28.3464"/>
			<rect x="0" y="619.961" width="113.386" height="28.3464" class="st11"/>
			<text x="13.89" y="639.53" class="st4" v:langID="1031"><v:paragraph v:horizAlign="1"/><v:tabList/>Your Fork</text>		</g>
		<g id="shape92-53" v:mID="92" v:groupContext="shape" transform="translate(2,-2)">
			<title>Rechteck.92</title>
			<desc>Your local Clone</desc>
			<v:userDefs>
				<v:ud v:nameU="visVersion" v:val="VT0(15):26"/>
			</v:userDefs>
			<v:textBlock v:margins="rect(4,4,4,4)" v:tabSpace="42.5197"/>
			<v:textRect cx="85.0394" cy="634.134" width="170.08" height="28.3464"/>
			<rect x="0" y="619.961" width="170.079" height="28.3464" class="st12"/>
			<text x="12.52" y="639.53" class="st4" v:langID="1031"><v:paragraph v:horizAlign="1"/><v:tabList/>Your local Clone</text>		</g>
		<g id="shape95-56" v:mID="95" v:groupContext="shape" transform="translate(384.677,-225.424)">
			<title>Rechteck.95</title>
			<desc>Is Parent of</desc>
			<v:userDefs>
				<v:ud v:nameU="visVersion" v:val="VT0(15):26"/>
			</v:userDefs>
			<v:textBlock v:margins="rect(4,4,4,4)" v:tabSpace="42.5197"/>
			<v:textRect cx="56.6929" cy="634.134" width="113.39" height="28.3464"/>
			<rect x="0" y="619.961" width="113.386" height="28.3464" class="st13"/>
			<text x="6.59" y="639.53" class="st4" v:langID="1031"><v:paragraph v:horizAlign="1"/><v:tabList/>Is Parent of</text>		</g>
		<g id="shape97-59" v:mID="97" v:groupContext="shape" transform="translate(2,-490.402)">
			<title>Rechteck.97</title>
			<v:userDefs>
				<v:ud v:nameU="visVersion" v:val="VT0(15):26"/>
			</v:userDefs>
			<path d="M0 648.31 L732.52 648.31 L732.52 492.4 L0 492.4 L0 648.31 Z" class="st14"/>
		</g>
		<g id="group98-61" transform="translate(244.362,-580.118)" v:mID="98" v:groupContext="group">
			<title>Tabelle.98</title>
		</g>
		<g id="shape99-62" v:mID="99" v:groupContext="shape" transform="translate(130.976,-588.197)">
			<title>Rechteck.99</title>
			<v:userDefs>
				<v:ud v:nameU="visVersion" v:val="VT0(15):26"/>
			</v:userDefs>
			<rect x="0" y="645.473" width="538" height="2.83465" class="st2"/>
		</g>
		<g id="shape103-64" v:mID="103" v:groupContext="shape" transform="translate(24.6772,-580.118)">
			<title>Rechteck.103</title>
			<desc>Master</desc>
			<v:userDefs>
				<v:ud v:nameU="visVersion" v:val="VT0(15):26"/>
			</v:userDefs>
			<v:textBlock v:margins="rect(4,4,4,4)" v:tabSpace="42.5197"/>
			<v:textRect cx="49.6063" cy="638.811" width="99.22" height="18.9921"/>
			<rect x="0" y="629.315" width="99.2126" height="18.9921" class="st3"/>
			<text x="19.28" y="644.21" class="st4" v:langID="1031"><v:paragraph v:horizAlign="1"/><v:tabList/>Master</text>		</g>
		<g id="shape104-67" v:mID="104" v:groupContext="shape" transform="translate(26.0945,-566.229)">
			<title>Tabelle.104</title>
			<rect x="0" y="601.536" width="676.898" height="46.7717" class="st5"/>
		</g>
		<g id="shape105-69" v:mID="105" v:groupContext="shape" transform="translate(2,-617.961)">
			<title>Tabelle.105</title>
			<desc>SpongePowered</desc>
			<v:textBlock v:margins="rect(2,2,2,2)" v:tabSpace="42.5197"/>
			<v:textRect cx="366.261" cy="634.134" width="732.53" height="28.3464"/>
			<rect x="0" y="619.961" width="732.522" height="28.3464" class="st6"/>
			<text x="291.91" y="639.53" class="st4" v:langID="1031"><v:paragraph v:horizAlign="1"/><v:tabList/>SpongePowered</text>		</g>
		<g id="shape106-72" v:mID="106" v:groupContext="shape" transform="translate(251.449,-526.544)">
			<title>Rechteck.106</title>
			<v:userDefs>
				<v:ud v:nameU="visVersion" v:val="VT0(15):26"/>
			</v:userDefs>
			<rect x="0" y="645.473" width="414.693" height="2.83465" class="st2"/>
		</g>
		<g id="shape110-74" v:mID="110" v:groupContext="shape" transform="translate(24.6772,-518.465)">
			<title>Rechteck.110</title>
			<desc>Feature 1</desc>
			<v:userDefs>
				<v:ud v:nameU="visVersion" v:val="VT0(15):26"/>
			</v:userDefs>
			<v:textBlock v:margins="rect(4,4,4,4)" v:tabSpace="42.5197"/>
			<v:textRect cx="49.6063" cy="638.811" width="99.22" height="18.9921"/>
			<rect x="0" y="629.315" width="99.2126" height="18.9921" class="st3"/>
			<text x="9.68" y="644.21" class="st4" v:langID="1031"><v:paragraph v:horizAlign="1"/><v:tabList/>Feature 1</text>		</g>
		<g id="shape111-77" v:mID="111" v:groupContext="shape" transform="translate(26.0945,-504.575)">
			<title>Tabelle.111</title>
			<rect x="0" y="601.536" width="676.898" height="46.7717" class="st5"/>
		</g>
		<g id="shape112-79" v:mID="112" v:groupContext="shape" v:layerMember="0" transform="translate(123.89,-589.614)">
			<title>Dynamischer Verbinder.112</title>
			<path d="M0 648.31 L53.12 648.31 A28.3465 28.3465 0 0 1 81.46 676.65 L81.46 681.61 A28.3465 28.3465 -180 0 0 109.81 709.96
						 L542.25 709.96" class="st8"/>
		</g>
		<g id="shape113-82" v:mID="113" v:groupContext="shape" v:layerMember="0" transform="translate(361.175,-490.402)">
			<title>Dynamischer Verbinder.113</title>
			<path d="M7.09 648.31 L7.09 694.2" class="st9"/>
		</g>
		<g id="shape114-87" v:mID="114" v:groupContext="shape" transform="translate(384.677,-447.57)">
			<title>Rechteck.114</title>
			<desc>Is Parent of</desc>
			<v:userDefs>
				<v:ud v:nameU="visVersion" v:val="VT0(15):26"/>
			</v:userDefs>
			<v:textBlock v:margins="rect(4,4,4,4)" v:tabSpace="42.5197"/>
			<v:textRect cx="56.6929" cy="634.134" width="113.39" height="28.3464"/>
			<rect x="0" y="619.961" width="113.386" height="28.3464" class="st13"/>
			<text x="6.59" y="639.53" class="st4" v:langID="1031"><v:paragraph v:horizAlign="1"/><v:tabList/>Is Parent of</text>		</g>
		<g id="shape115-90" v:mID="115" v:groupContext="shape" transform="translate(2,-447.57)">
			<title>Rechteck.115</title>
			<desc>Our Repository</desc>
			<v:userDefs>
				<v:ud v:nameU="visVersion" v:val="VT0(15):26"/>
			</v:userDefs>
			<v:textBlock v:margins="rect(4,4,4,4)" v:tabSpace="42.5197"/>
			<v:textRect cx="85.0394" cy="634.134" width="170.08" height="28.3464"/>
			<rect x="0" y="619.961" width="170.079" height="28.3464" class="st15"/>
			<text x="18.06" y="639.53" class="st4" v:langID="1031"><v:paragraph v:horizAlign="1"/><v:tabList/>Our Repository</text>		</g>
		<g id="shape84-93" v:mID="84" v:groupContext="shape" transform="translate(299.39,-79.0947)">
			<title>Kreis.84</title>
			<v:userDefs>
				<v:ud v:nameU="visVersion" v:val="VT0(15):26"/>
			</v:userDefs>
			<path d="M0 638.81 A9.49606 9.49606 0 1 1 18.99 638.81 A9.49606 9.49606 0 0 1 0 638.81 Z" class="st16"/>
		</g>
		<g id="shape85-95" v:mID="85" v:groupContext="shape" transform="translate(348.736,-79.0947)">
			<title>Kreis.85</title>
			<v:userDefs>
				<v:ud v:nameU="visVersion" v:val="VT0(15):26"/>
			</v:userDefs>
			<path d="M0 638.81 A9.49606 9.49606 0 1 1 18.99 638.81 A9.49606 9.49606 0 0 1 0 638.81 Z" class="st16"/>
		</g>
		<g id="shape86-97" v:mID="86" v:groupContext="shape" transform="translate(396.076,-79.0947)">
			<title>Kreis.86</title>
			<v:userDefs>
				<v:ud v:nameU="visVersion" v:val="VT0(15):26"/>
			</v:userDefs>
			<path d="M0 638.81 A9.49606 9.49606 0 1 1 18.99 638.81 A9.49606 9.49606 0 0 1 0 638.81 Z" class="st16"/>
		</g>
		<g id="shape71-99" v:mID="71" v:groupContext="shape" v:layerMember="0" transform="translate(123.89,-372.095)">
			<title>Dynamischer Verbinder</title>
			<path d="M0 648.31 L53.12 648.31 A28.3465 28.3465 0 0 1 81.46 676.65 L81.46 681.61 A28.3465 28.3465 -180 0 0 109.81 709.96
						 L542.25 709.96" class="st8"/>
		</g>
		<g id="shape64-102" v:mID="64" v:groupContext="shape" transform="translate(396.076,-300.945)">
			<title>Kreis.64</title>
			<v:userDefs>
				<v:ud v:nameU="visVersion" v:val="VT0(15):26"/>
			</v:userDefs>
			<path d="M0 638.81 A9.49606 9.49606 0 1 1 18.99 638.81 A9.49606 9.49606 0 0 1 0 638.81 Z" class="st16"/>
		</g>
		<g id="shape63-104" v:mID="63" v:groupContext="shape" transform="translate(348.736,-300.945)">
			<title>Kreis.63</title>
			<v:userDefs>
				<v:ud v:nameU="visVersion" v:val="VT0(15):26"/>
			</v:userDefs>
			<path d="M0 638.81 A9.49606 9.49606 0 1 1 18.99 638.81 A9.49606 9.49606 0 0 1 0 638.81 Z" class="st16"/>
		</g>
		<g id="shape62-106" v:mID="62" v:groupContext="shape" transform="translate(299.39,-300.945)">
			<title>Kreis.62</title>
			<v:userDefs>
				<v:ud v:nameU="visVersion" v:val="VT0(15):26"/>
			</v:userDefs>
			<path d="M0 638.81 A9.49606 9.49606 0 1 1 18.99 638.81 A9.49606 9.49606 0 0 1 0 638.81 Z" class="st16"/>
		</g>
		<g id="shape32-108" v:mID="32" v:groupContext="shape" transform="translate(143.695,-362.599)">
			<title>Kreis.32</title>
			<v:userDefs>
				<v:ud v:nameU="visVersion" v:val="VT0(15):26"/>
			</v:userDefs>
			<path d="M0 638.81 A9.49606 9.49606 0 1 1 18.99 638.81 A9.49606 9.49606 0 0 1 0 638.81 Z" class="st16"/>
		</g>
		<g id="shape107-110" v:mID="107" v:groupContext="shape" transform="translate(299.39,-518.465)">
			<title>Kreis.107</title>
			<v:userDefs>
				<v:ud v:nameU="visVersion" v:val="VT0(15):26"/>
			</v:userDefs>
			<path d="M0 638.81 A9.49606 9.49606 0 1 1 18.99 638.81 A9.49606 9.49606 0 0 1 0 638.81 Z" class="st16"/>
		</g>
		<g id="shape108-112" v:mID="108" v:groupContext="shape" transform="translate(348.736,-518.465)">
			<title>Kreis.108</title>
			<v:userDefs>
				<v:ud v:nameU="visVersion" v:val="VT0(15):26"/>
			</v:userDefs>
			<path d="M0 638.81 A9.49606 9.49606 0 1 1 18.99 638.81 A9.49606 9.49606 0 0 1 0 638.81 Z" class="st16"/>
		</g>
		<g id="shape109-114" v:mID="109" v:groupContext="shape" transform="translate(396.076,-518.465)">
			<title>Kreis.109</title>
			<v:userDefs>
				<v:ud v:nameU="visVersion" v:val="VT0(15):26"/>
			</v:userDefs>
			<path d="M0 638.81 A9.49606 9.49606 0 1 1 18.99 638.81 A9.49606 9.49606 0 0 1 0 638.81 Z" class="st16"/>
		</g>
		<g id="shape100-116" v:mID="100" v:groupContext="shape" transform="translate(143.695,-580.118)">
			<title>Kreis.100</title>
			<v:userDefs>
				<v:ud v:nameU="visVersion" v:val="VT0(15):26"/>
			</v:userDefs>
			<path d="M0 638.81 A9.49606 9.49606 0 1 1 18.99 638.81 A9.49606 9.49606 0 0 1 0 638.81 Z" class="st16"/>
		</g>
		<g id="shape77-118" v:mID="77" v:groupContext="shape" transform="translate(143.695,-140.748)">
			<title>Kreis.77</title>
			<v:userDefs>
				<v:ud v:nameU="visVersion" v:val="VT0(15):26"/>
			</v:userDefs>
			<path d="M0 638.81 A9.49606 9.49606 0 1 1 18.99 638.81 A9.49606 9.49606 0 0 1 0 638.81 Z" class="st16"/>
		</g>
		<g id="shape147-120" v:mID="147" v:groupContext="shape" v:layerMember="0" transform="translate(661.89,-589.614)">
			<title>Dynamischer Verbinder.147</title>
			<path d="M7.09 648.31 L81.32 648.31 L81.32 1087.68 L22.81 1087.68" class="st17"/>
		</g>
		<g id="shape148-126" v:mID="148" v:groupContext="shape" transform="translate(582.123,-447.57)">
			<title>Rechteck.148</title>
			<desc>Make Parent of</desc>
			<v:userDefs>
				<v:ud v:nameU="visVersion" v:val="VT0(15):26"/>
			</v:userDefs>
			<v:textBlock v:margins="rect(4,4,4,4)" v:tabSpace="42.5197"/>
			<v:textRect cx="76.1999" cy="634.134" width="152.4" height="28.3464"/>
			<rect x="0" y="619.961" width="152.4" height="28.3464" class="st19"/>
			<text x="8.8" y="639.53" class="st4" v:langID="1031"><v:paragraph v:horizAlign="1"/><v:tabList/>Make Parent of</text>		</g>
	</g>
</svg>
